<?xml version="1.0" encoding="UTF-8"?>
<svg width="50px" height="50px" viewBox="0 0 50 50" version="1.1" xmlns="http://www.w3.org/2000/svg" xmlns:xlink="http://www.w3.org/1999/xlink">
    <title>addBtn</title>
    <g id="页面-1" stroke="none" stroke-width="1" fill="none" fill-rule="evenodd">
        <g id="画板" transform="translate(-518.000000, -156.000000)">
            <g id="addBtn" transform="translate(518.000000, 156.000000)">
                <g id="path-1-link" fill="#6287EC">
                    <circle id="path-1" cx="25" cy="25" r="25"></circle>
                </g>
                <rect id="矩形" fill="#000000" fill-rule="nonzero" opacity="0" x="16" y="16" width="19" height="19"></rect>
                <path d="M35,31.72 L35,21.16 C35,19.96 34.0894309,19 32.9512195,19 L23.0487805,19 C21.9105691,19 21,19.96 21,21.16 L21,31.84 C21,33.04 21.9105691,34 23.0487805,34 L33.1788618,34 C34.203252,33.76 35,32.92 35,31.72 Z M27.0325203,30.64 L27.0325203,27.52 L23.9593496,27.52 L23.9593496,25.36 L26.9186992,25.36 L26.9186992,22.12 L28.9674797,22.12 L28.9674797,25.24 L31.9268293,25.24 L31.9268293,27.4 L28.9674797,27.4 L28.9674797,30.52 L27.0325203,30.52 L27.0325203,30.64 Z" id="形状" fill="#FFFFFF" fill-rule="nonzero"></path>
                <path d="M18.483871,28.44 C17.8064516,28.44 17.3548387,27.96 17.3548387,27.24 L17.3548387,17.64 C17.3548387,16.92 17.8064516,16.44 18.483871,16.44 L27.516129,16.44 C28.1935484,16.44 28.6451613,16.92 28.6451613,17.64 L28.6451613,17.76 L30,17.76 L30,17.16 C30,15.96 29.0967742,15 27.9677419,15 L18.0322581,15 C16.9032258,15 16,15.96 16,17.16 L16,27.84 C16,29.04 16.9032258,30 18.0322581,30 L18.5967742,30 L18.483871,28.44 Z" id="路径" fill="#FFFFFF" fill-rule="nonzero"></path>
            </g>
        </g>
    </g>
</svg>