<?xml version="1.0" encoding="UTF-8"?>
<svg width="18px" height="14px" viewBox="0 0 18 14" version="1.1" xmlns="http://www.w3.org/2000/svg" xmlns:xlink="http://www.w3.org/1999/xlink">
    <!-- Generator: Sketch 61.2 (89653) - https://sketch.com -->
    <title>邮箱</title>
    <desc>Created with Sketch.</desc>
    <g id="页面-2" stroke="none" stroke-width="1" fill="none" fill-rule="evenodd">
        <g id="首页-密码" transform="translate(-46.000000, -344.000000)" fill-rule="nonzero">
            <g id="邮箱" transform="translate(45.000000, 341.000000)">
                <rect id="矩形" fill="#000000" opacity="0" x="0" y="0" width="20" height="20"></rect>
                <path d="M16.6666667,16.55 L3.33333334,16.55 C2.52791808,16.55 1.875,15.8970819 1.875,15.0916667 L1.875,5.275 C1.87955263,4.47147805 2.52981139,3.82121929 3.33333334,3.81666666 L16.6666667,3.81666666 C17.4701886,3.82121929 18.1204474,4.47147805 18.125,5.275 L18.125,15.0916667 C18.125,15.8970819 17.4720819,16.55 16.6666667,16.55 Z M3.33333334,5.06666666 C3.2780799,5.06666666 3.2250895,5.088616 3.18601942,5.12768608 C3.14694934,5.16675616 3.125,5.21974656 3.125,5.275 L3.125,15.0916667 C3.125,15.206726 3.21827401,15.3 3.33333334,15.3 L16.6666667,15.3 C16.781726,15.3 16.875,15.206726 16.875,15.0916667 L16.875,5.275 C16.875,5.15994067 16.781726,5.06666666 16.6666667,5.06666666 L3.33333334,5.06666666 Z M10.0416667,10.2833513 C9.74395526,10.2848145 9.45300355,10.1946195 9.20833334,10.025 L2.35,5.24166666 L3.06666666,4.21666666 L9.925,9 C9.99807455,9.04909731 10.0935921,9.04909731 10.1666667,9 L16.9333333,4.21666666 L17.65,5.24166666 L10.8833333,10 C10.6409612,10.1832836 10.3455363,10.2827336 10.0416667,10.2833513 Z" id="形状" fill="#999999"></path>
            </g>
        </g>
    </g>
</svg>