<?xml version="1.0" encoding="UTF-8"?>
<svg width="42px" height="42px" viewBox="0 0 42 42" version="1.1" xmlns="http://www.w3.org/2000/svg" xmlns:xlink="http://www.w3.org/1999/xlink">
    <!-- Generator: Sketch 61.2 (89653) - https://sketch.com -->
    <title>编组 3备份</title>
    <desc>Created with Sketch.</desc>
    <g id="页面-2" stroke="none" stroke-width="1" fill="none" fill-rule="evenodd">
        <g id="编组-3备份">
            <circle id="椭圆形" fill="#FFFFFF" cx="21" cy="21" r="21"></circle>
            <path d="M20.7888773,13.0032394 C21.1002947,12.980505 21.4083339,13.0798725 21.6477638,13.2802995 L21.6477638,13.2802995 L25.0625302,16.1444089 L25.0625302,14.2811793 C25.0626062,13.6117877 25.6052767,13.0691788 26.2746683,13.0691788 C26.94406,13.0691788 27.4867305,13.6117877 27.4868065,14.2811793 L27.4868065,14.2811793 L27.4868065,18.1738745 L30.1223412,20.3903557 C30.6269112,20.8266768 30.6870988,21.5875108 30.257408,22.0977389 C29.8272465,22.5995063 29.0750063,22.6656542 28.5638779,22.2466588 L28.5638779,22.2466588 L27.833,21.634 L27.8331317,27.6146992 C27.8331317,28.334775 27.2837324,28.9265317 26.5812446,28.9936585 L26.4478309,29 L22.6382538,29 L22.6382538,24.1514473 L18.8286767,24.1514473 L18.8286767,29 L15.0190996,29 C14.2540191,29 13.6337988,28.3797797 13.6337988,27.6146992 L13.6337988,27.6146992 L13.633,21.706 L12.989634,22.2466588 C12.5105847,22.6463595 11.8142164,22.6150537 11.372772,22.1939311 L11.2822508,22.0977389 C10.854,21.5844718 10.9205271,20.8217314 11.4311706,20.3903557 L11.4311706,20.3903557 L19.9057481,13.2802995 C20.1437535,13.0797562 20.4507868,12.9803122 20.7611713,13.0032394 L20.7611713,13.0032394 Z" id="形状结合备份" stroke="#2A82E2" stroke-width="1.5" fill="#2A82E2" fill-rule="nonzero"></path>
        </g>
    </g>
</svg>