<?xml version="1.0" standalone="no"?><!DOCTYPE svg PUBLIC "-//W3C//DTD SVG 1.1//EN" "http://www.w3.org/Graphics/SVG/1.1/DTD/svg11.dtd"><svg t="1612107298916" class="icon" viewBox="0 0 1024 1024" version="1.1" xmlns="http://www.w3.org/2000/svg" p-id="2698" xmlns:xlink="http://www.w3.org/1999/xlink" width="200" height="200"><defs><style type="text/css"></style></defs><path d="M512.064 926.72a414.976 414.976 0 1 1 0-829.952 414.976 414.976 0 1 1 0 829.952z m0-778.048a363.136 363.136 0 1 0 363.136 363.072 363.008 363.008 0 0 0-363.136-363.072z m22.784 480.704a25.152 25.152 0 0 1-22.784 6.72 25.472 25.472 0 0 1-22.784-6.72L290.688 430.784a25.92 25.92 0 1 1 36.672-36.608l184.768 184.704 184.704-184.704a25.856 25.856 0 0 1 36.672 0 25.856 25.856 0 0 1 0 36.672L534.848 629.376z" p-id="2699" fill="#2E2F33"></path></svg>