<?xml version="1.0" standalone="no"?><!DOCTYPE svg PUBLIC "-//W3C//DTD SVG 1.1//EN" "http://www.w3.org/Graphics/SVG/1.1/DTD/svg11.dtd"><svg t="1611572052966" class="icon" viewBox="0 0 1024 1024" version="1.1" xmlns="http://www.w3.org/2000/svg" p-id="2803" xmlns:xlink="http://www.w3.org/1999/xlink" width="200" height="200"><defs><style type="text/css"></style></defs><path d="M768.832 320h-62.976v-97.536c0-122.24-100.8-221.76-224.704-221.76-123.84 0-224.64 99.52-224.64 221.76V320h-63.68c-70.656 0-128 57.344-128 128v384c0 70.656 57.344 128 128 128h576c70.656 0 128-57.344 128-128V448c0-70.656-57.344-128-128-128z m-256 313.536V736c0 17.664-14.336 32-32 32s-32-14.336-32-32V633.536c-37.12-13.312-64-47.872-64-89.536 0-48.64 36.672-87.104 83.584-93.504 3.776-1.6 7.936-2.496 12.416-2.496 52.992 0 96 43.008 96 96 0 41.664-26.88 76.224-64 89.536zM641.6 320H320.704v-97.536c0-87.296 72-158.4 160.448-158.4 88.512 0 160.512 71.04 160.512 158.4V320z" fill="#C8CEDC" p-id="2804"></path></svg>