<?xml version="1.0" encoding="UTF-8"?>
<svg width="16px" height="20px" viewBox="0 0 16 20" version="1.1" xmlns="http://www.w3.org/2000/svg" xmlns:xlink="http://www.w3.org/1999/xlink">
    <!-- Generator: Sketch 61.2 (89653) - https://sketch.com -->
    <title>密码</title>
    <desc>Created with Sketch.</desc>
    <g id="页面-2" stroke="none" stroke-width="1" fill="none" fill-rule="evenodd">
        <g id="首页-密码" transform="translate(-47.000000, -405.000000)" fill-rule="nonzero">
            <g id="密码" transform="translate(45.000000, 405.000000)">
                <rect id="矩形" fill="#000000" opacity="0" x="0" y="0" width="20" height="20"></rect>
                <path d="M15.4553516,7.79064453 L14.9340625,7.79064453 L14.9340625,5.66085938 C14.9340625,2.94033203 12.7205273,0.726777344 9.99964844,0.726777344 C7.27945313,0.726777344 5.06591797,2.9403125 5.06591797,5.66085938 L5.06591797,7.79064453 L4.54462891,7.79064453 C3.3625,7.79064453 2.40085937,8.75226562 2.40085937,9.93441406 L2.40085937,17.1294922 C2.40085937,18.3116211 3.36248047,19.2732617 4.54462891,19.2732617 L15.4553516,19.2732617 C16.6374805,19.2732617 17.5991211,18.3116406 17.5991211,17.1294922 L17.5991211,9.93441406 C17.5991211,8.75228516 16.6375195,7.79064453 15.4553516,7.79064453 L15.4553516,7.79064453 Z M6.49507813,5.66082031 C6.49507813,3.72814453 8.06730469,2.15589844 9.99962891,2.15589844 C11.9326563,2.15589844 13.5048828,3.728125 13.5048828,5.66082031 L13.5048828,7.79060547 L6.49507813,7.79060547 L6.49507813,5.66082031 L6.49507813,5.66082031 Z M16.1699414,17.1294727 C16.1699414,17.523418 15.8496289,17.8440625 15.4553516,17.8440625 L4.54462891,17.8440625 C4.15035156,17.8440625 3.83003906,17.5233984 3.83003906,17.1294727 L3.83003906,9.93439453 C3.83003906,9.54044922 4.15035156,9.21980469 4.54462891,9.21980469 L15.4553516,9.21980469 C15.8496289,9.21980469 16.1699414,9.54046875 16.1699414,9.93439453 L16.1699414,17.1294727 Z M8.43425781,13.5320117 C8.43425781,14.3967188 9.13523438,15.0977148 9.99996094,15.0977148 C10.864668,15.0977148 11.5656641,14.3967383 11.5656641,13.5320117 C11.5656641,12.6673047 10.8646875,11.9663086 9.99996094,11.9663086 C9.13525391,11.9663086 8.43425781,12.6672852 8.43425781,13.5320117 L8.43425781,13.5320117 Z" id="形状" fill="#999999"></path>
            </g>
        </g>
    </g>
</svg>